# xmcd
#
# Track frame offsets:
#	150
#	23619
#	50298
#	75706
#	96014
#	119256
#	147795
#	171058
#	199062
#	224225
#
# Disc length: 3286 seconds
# Revision: 0
# Processed by: cddbd v1.5.2PL0 Copyright (c) Steve Scherf et al.
# Submitted via: dBpowerAMP V12.0
#
DISCID=850cd40a
DTITLE=Toler Tucci Band - Doc's Hideaway
DYEAR=2012
DGENRE=Blues
TTITLE0=Gimme Some Of Your Love
TTITLE1=Doc's Hideaway
TTITLE2=Show Me
TTITLE3=Coming Home Tonight
TTITLE4=Play By The Rules
TTITLE5=Never Can Tell
TTITLE6=Without You In My Life
TTITLE7=Ali Shuffle
TTITLE8=There Will Never Be
TTITLE9=Wicked Woman
EXTD=
EXTT0=
EXTT1=
EXTT2=
EXTT3=
EXTT4=
EXTT5=
EXTT6=
EXTT7=
EXTT8=
EXTT9=
PLAYORDER=
